<svg width="32" height="32" viewBox="0 0 32 32" fill="none" xmlns="http://www.w3.org/2000/svg">
<g id="dashicons:search">
<path id="Vector" d="M19.424 6.68798C20.8498 8.1155 21.7422 9.98932 21.9519 11.996C22.1616 14.0027 21.6759 16.0205 20.576 17.712C20.768 17.872 20.928 18.048 21.152 18.208C21.472 18.464 21.904 18.784 22.448 19.152C22.992 19.536 23.344 19.776 23.504 19.904C24.176 20.4 24.672 20.816 25.008 21.152C25.52 21.664 25.968 22.192 26.352 22.752C26.752 23.312 27.056 23.856 27.296 24.416C27.52 24.976 27.632 25.504 27.584 26.016C27.552 26.528 27.36 26.96 27.008 27.312C26.656 27.664 26.224 27.856 25.712 27.888C25.216 27.92 24.672 27.824 24.128 27.584C23.568 27.36 23.008 27.04 22.464 26.64C21.904 26.256 21.376 25.808 20.864 25.296C20.528 24.96 20.112 24.464 19.632 23.808C19.472 23.6 19.232 23.248 18.88 22.752C18.528 22.24 18.24 21.84 17.984 21.504C17.728 21.184 17.52 20.944 17.28 20.704C15.6193 21.5736 13.7244 21.8904 11.8711 21.6084C10.0178 21.3264 8.30291 20.4602 6.97602 19.136C3.55202 15.696 3.55202 10.112 6.97602 6.68798C7.79302 5.87 8.76323 5.22109 9.8312 4.77835C10.8992 4.33561 12.0439 4.10773 13.2 4.10773C14.3561 4.10773 15.5009 4.33561 16.5688 4.77835C17.6368 5.22109 18.607 5.87 19.424 6.68798ZM17.168 16.864C18.2133 15.8111 18.7999 14.3876 18.7999 12.904C18.7999 11.4203 18.2133 9.99688 17.168 8.94398C16.6485 8.42295 16.0313 8.00956 15.3518 7.7275C14.6723 7.44544 13.9438 7.30025 13.208 7.30025C12.4723 7.30025 11.7438 7.44544 11.0642 7.7275C10.3847 8.00956 9.7675 8.42295 9.24802 8.94398C8.727 9.46346 8.31361 10.0806 8.03155 10.7602C7.74948 11.4397 7.60429 12.1682 7.60429 12.904C7.60429 13.6397 7.74948 14.3682 8.03155 15.0478C8.31361 15.7273 8.727 16.3445 9.24802 16.864C9.7675 17.385 10.3847 17.7984 11.0642 18.0804C11.7438 18.3625 12.4723 18.5077 13.208 18.5077C13.9438 18.5077 14.6723 18.3625 15.3518 18.0804C16.0313 17.7984 16.6485 17.385 17.168 16.864Z" fill="#E5E5E5"/>
</g>
</svg>
