<svg width="82" height="82" viewBox="0 0 82 82" fill="none" xmlns="http://www.w3.org/2000/svg">
<g filter="url(#filter0_d_164_143)">
<rect x="11" y="11" width="60" height="60" rx="30" fill="#B95737"/>
</g>
<path d="M39.6 54V51.1111H50.8V40.8556C50.8 38.0389 49.8492 35.6495 47.9475 33.6875C46.0458 31.7255 43.73 30.7444 41 30.7444C38.27 30.7444 35.9542 31.7255 34.0525 33.6875C32.1508 35.6495 31.2 38.0389 31.2 40.8556V49.6667H29.8C29.03 49.6667 28.3708 49.3838 27.8225 48.8181C27.2742 48.2523 27 47.5722 27 46.7778V43.8889C27 43.3833 27.1225 42.9079 27.3675 42.4625C27.6125 42.0171 27.9567 41.662 28.4 41.3972L28.505 39.4833C28.6917 37.8463 29.1525 36.3296 29.8875 34.9333C30.6225 33.537 31.5442 32.3213 32.6525 31.2861C33.7608 30.2509 35.0325 29.4444 36.4675 28.8667C37.9025 28.2889 39.4133 28 41 28C42.5867 28 44.0917 28.2889 45.515 28.8667C46.9383 29.4444 48.21 30.2449 49.33 31.2681C50.45 32.2912 51.3717 33.5009 52.095 34.8972C52.8183 36.2935 53.285 37.8102 53.495 39.4472L53.6 41.325C54.0433 41.5417 54.3875 41.8667 54.6325 42.3C54.8775 42.7333 55 43.1907 55 43.6722V46.9944C55 47.4759 54.8775 47.9333 54.6325 48.3667C54.3875 48.8 54.0433 49.125 53.6 49.3417V51.1111C53.6 51.9056 53.3258 52.5856 52.7775 53.1514C52.2292 53.7171 51.57 54 50.8 54H39.6ZM36.8 43.8889C36.4033 43.8889 36.0708 43.7505 35.8025 43.4736C35.5342 43.1968 35.4 42.8537 35.4 42.4444C35.4 42.0352 35.5342 41.6921 35.8025 41.4153C36.0708 41.1384 36.4033 41 36.8 41C37.1967 41 37.5292 41.1384 37.7975 41.4153C38.0658 41.6921 38.2 42.0352 38.2 42.4444C38.2 42.8537 38.0658 43.1968 37.7975 43.4736C37.5292 43.7505 37.1967 43.8889 36.8 43.8889ZM45.2 43.8889C44.8033 43.8889 44.4708 43.7505 44.2025 43.4736C43.9342 43.1968 43.8 42.8537 43.8 42.4444C43.8 42.0352 43.9342 41.6921 44.2025 41.4153C44.4708 41.1384 44.8033 41 45.2 41C45.5967 41 45.9292 41.1384 46.1975 41.4153C46.4658 41.6921 46.6 42.0352 46.6 42.4444C46.6 42.8537 46.4658 43.1968 46.1975 43.4736C45.9292 43.7505 45.5967 43.8889 45.2 43.8889ZM32.635 41.65C32.4717 39.0981 33.2183 36.9074 34.875 35.0778C36.5317 33.2481 38.5967 32.3333 41.07 32.3333C43.1467 32.3333 44.9725 33.0134 46.5475 34.3736C48.1225 35.7338 49.0733 37.4731 49.4 39.5917C47.2767 39.5676 45.3225 38.9778 43.5375 37.8222C41.7525 36.6667 40.3817 35.1019 39.425 33.1278C39.0517 35.0537 38.2642 36.769 37.0625 38.2736C35.8608 39.7782 34.385 40.9037 32.635 41.65Z" fill="white"/>
<defs>
<filter id="filter0_d_164_143" x="0" y="0" width="82" height="82" filterUnits="userSpaceOnUse" color-interpolation-filters="sRGB">
<feFlood flood-opacity="0" result="BackgroundImageFix"/>
<feColorMatrix in="SourceAlpha" type="matrix" values="0 0 0 0 0 0 0 0 0 0 0 0 0 0 0 0 0 0 127 0" result="hardAlpha"/>
<feOffset/>
<feGaussianBlur stdDeviation="5.5"/>
<feComposite in2="hardAlpha" operator="out"/>
<feColorMatrix type="matrix" values="0 0 0 0 0 0 0 0 0 0 0 0 0 0 0 0 0 0 0.37 0"/>
<feBlend mode="normal" in2="BackgroundImageFix" result="effect1_dropShadow_164_143"/>
<feBlend mode="normal" in="SourceGraphic" in2="effect1_dropShadow_164_143" result="shape"/>
</filter>
</defs>
</svg>
